<?xml version="1.0" standalone="no"?>
<!DOCTYPE svg PUBLIC "-//W3C//DTD SVG 20010904//EN"
 "http://www.w3.org/TR/2001/REC-SVG-20010904/DTD/svg10.dtd">
<svg version="1.0" xmlns="http://www.w3.org/2000/svg"
 width="268.000000pt" height="256.000000pt" viewBox="0 0 268.000000 256.000000"
 preserveAspectRatio="xMidYMid meet">

<g transform="translate(0.000000,256.000000) scale(0.100000,-0.100000)"
fill="#000000" stroke="none">
<path d="M1215 2519 c-188 -131 -787 -734 -1038 -1044 -95 -119 -177 -241
-177 -265 0 -132 1131 -1108 1386 -1196 50 -17 51 -17 95 4 158 77 812 777
1091 1167 102 143 111 160 104 188 -6 25 -455 483 -591 603 -232 205 -715 561
-785 579 -19 5 -39 -4 -85 -36z m175 -318 c231 -155 520 -383 775 -611 120
-107 229 -219 221 -227 -2 -3 -28 0 -58 6 -81 17 -100 19 -134 20 -38 1 -48
20 -32 59 12 30 18 52 13 52 -2 0 -18 -14 -36 -31 -34 -32 -86 -59 -113 -59
-8 0 -30 -15 -49 -32 -48 -45 -60 -55 -84 -62 -19 -6 -21 -16 -25 -149 -5
-177 -14 -203 -75 -200 -61 2 -293 128 -305 165 -2 6 -11 12 -20 14 -17 2 -68
33 -68 41 0 11 42 63 51 63 5 0 42 -24 82 -54 80 -60 143 -96 168 -96 30 0 41
28 46 114 l6 84 -111 56 c-62 31 -117 56 -124 56 -7 -1 -76 -59 -152 -130 -76
-70 -158 -138 -182 -151 -38 -19 -94 -83 -94 -108 0 -12 -80 -76 -132 -106
-77 -44 -100 -30 -127 77 -15 65 -41 298 -41 380 0 57 -3 69 -20 78 -17 9 -20
8 -20 -10 0 -11 -3 -20 -7 -20 -5 0 -19 -10 -33 -21 -16 -14 -19 -19 -7 -15
18 6 24 -9 7 -19 -6 -3 -5 -15 2 -30 6 -14 9 -28 5 -31 -9 -10 -48 16 -41 28
4 7 3 8 -4 4 -6 -4 -22 0 -35 8 -22 15 -31 12 -174 -62 -84 -42 -155 -74 -158
-70 -11 10 12 44 103 157 106 130 466 523 594 647 138 134 266 244 285 244 9
0 56 -26 103 -59z m984 -903 c-4 -7 -23 -32 -42 -56 -29 -37 -36 -41 -50 -30
-14 12 -14 10 -3 -10 11 -22 11 -22 -8 -10 -12 7 -21 17 -21 22 0 4 -6 4 -12
-2 -10 -8 -14 -3 -15 19 -1 17 2 27 7 24 6 -4 10 -2 10 4 0 5 28 18 63 29 77
25 80 25 71 10z"/>
<path d="M1220 1613 c0 -4 10 -18 23 -31 l22 -24 -25 8 c-37 12 -92 12 -115 0
-11 -6 -26 -11 -32 -11 -28 0 -10 -20 74 -79 99 -70 110 -90 63 -124 l-31 -23
-30 25 c-17 14 -36 26 -42 26 -6 0 -46 -34 -88 -76 -44 -43 -82 -74 -88 -70
-6 4 -11 23 -11 43 0 30 9 43 62 94 59 56 61 60 42 73 -10 8 -37 20 -58 26
-35 10 -41 10 -53 -5 -31 -44 -29 -248 3 -345 22 -65 45 -74 101 -39 48 30
162 127 301 256 90 85 110 108 101 119 -9 11 -7 14 13 14 14 0 37 14 57 34
l32 33 -25 17 c-33 21 -45 20 -72 -5 -29 -27 -53 -19 -60 21 -4 16 -9 30 -13
31 -3 0 -15 3 -26 5 -37 9 -125 14 -125 7z"/>
<path d="M1586 1475 c-18 -14 -16 -15 28 -15 42 0 47 2 36 15 -16 19 -39 19
-64 0z"/>
</g>
</svg>
